# xmcd CD database file
#
# Track frame offsets:
#	150
#	14725
#	28800
#	48330
#
# Disc length: 836 seconds
#
# Revision: 0
# Processed by: cddbd v1.5PL3 Copyright (c) Steve Scherf et al.
# Submitted via: CDex 1.50
#
DISCID=2f034204
DTITLE=ママスタジヲ - ステロタイプポップ
DYEAR=1900
DGENRE=Pop
TTITLE0=ステロタイプポップ
TTITLE1=クイズダービー
TTITLE2=未来嫌い
TTITLE3=まだかな？
EXTD=
EXTT0=
EXTT1=
EXTT2=
EXTT3=
PLAYORDER=
